<!DOCTYPE svg PUBLIC "-//W3C//DTD SVG 1.1//EN" "http://www.w3.org/Graphics/SVG/1.1/DTD/svg11.dtd">
<svg version="1.1" xmlns="http://www.w3.org/2000/svg" xmlns:xlink="http://www.w3.org/1999/xlink" xml:space="preserve" width="288" height="48">
    <!-- Background -->
    <rect fill="white" width="100%" height="100%"/>
    <!-- Guides
    <g fill="none" stroke="black" stroke-linecap="round" stroke-linejoin="round" stroke-width="0.5">
        <polyline points="0,0 0,48" />
        <polyline points="48,0 48,48" />
        <polyline points="96,0 96,48" />
        <polyline points="144,0 144,48" />
        <polyline points="192,0 192,48" />
        <polyline points="240,0 240,48" />
        <polyline points="288,0 288,48" />
    </g>
    -->
    <!-- Lines -->
    <g fill="none" stroke-linecap="round" stroke-linejoin="round" >
        <g stroke-width="4">
            <g stroke="#ffb3ba">
                <!-- C -->
                <polyline points="42,6 6,6 6,42 42,42" />
            </g>
            <g stroke="#baffc9">
                <!-- O -->
                <polyline points="54,6 54,42 90,42 90,6 54,6" />
            </g>
            <g stroke="#bae1ff">
                <!-- L -->
                <polyline points="102,6 102,42 138,42" />
            </g>
            <g stroke="#baffc9">
                <!-- O -->
                <polyline points="150,6 150,42 186,42 186,6 150,6" />
            </g>
            <g stroke="#ffffba">
                <!-- U -->
                <polyline points="198,6 198,42 234,42 234,6" />
            </g>
            <g stroke="#bae1ff">
                <!-- R -->
                <polyline points="246,42 246,6 282,6" />
            </g>
        </g>

        <g stroke-width="1">
            <g stroke="red">
                <!-- C -->
                <polyline points="42,6 6,6 6,42 42,42" />
            </g>
            <g stroke="green">
                <!-- O -->
                <polyline points="54,6 54,42 90,42 90,6 54,6" />
            </g>
            <g stroke="blue">
                <!-- L -->
                <polyline points="102,6 102,42 138,42" />
            </g>
            <g stroke="green">
                <!-- O -->
                <polyline points="150,6 150,42 186,42 186,6 150,6" />
            </g>
            <g stroke="yellow">
                <!-- U -->
                <polyline points="198,6 198,42 234,42 234,6" />
            </g>
            <g stroke="blue">
                <!-- R -->
                <polyline points="246,42 246,6 282,6" />
            </g>
        </g>
    </g>
</svg>
